<svg width="100" height="100" viewBox="0 0 100 100" fill="none" xmlns="http://www.w3.org/2000/svg">
<path d="M59.6851 43.4969C57.5469 43.4969 55.9547 44.5469 55.9547 47.0742C55.9547 48.9781 57.0039 50.3 59.5703 50.3C61.7453 50.3 63.2234 49.018 63.2234 46.9953C63.2234 44.7031 61.9008 43.4969 59.6851 43.4969V43.4969ZM55.4109 61.3406C54.9047 61.9617 54.4 62.6219 54.4 63.4008C54.4 64.9547 56.3812 65.4219 59.1039 65.4219C61.3578 65.4219 64.4289 65.264 64.4289 63.168C64.4289 61.9219 62.9508 61.8453 61.0844 61.7281L55.4109 61.3406ZM66.9148 43.614C67.6141 44.5086 68.3539 45.7523 68.3539 47.5406C68.3539 51.8547 64.9719 54.3812 60.075 54.3812C58.8297 54.3812 57.7023 54.2266 57.0031 54.032L55.7203 56.0922L59.5289 56.3242C66.2539 56.7531 70.218 56.9476 70.218 62.1156C70.218 66.5867 66.293 69.1117 59.5289 69.1117C52.493 69.1117 49.8117 67.3234 49.8117 64.2539C49.8117 62.5039 50.5898 61.5734 51.95 60.2883C50.6664 59.7461 50.2398 58.775 50.2398 57.725C50.2398 56.8695 50.6672 56.0922 51.3672 55.3531C52.0672 54.6156 52.8445 53.8758 53.7766 53.0211C51.8719 52.0883 50.4344 50.0672 50.4344 47.1898C50.4344 42.7203 53.3883 39.6508 59.3351 39.6508C61.007 39.6508 62.0187 39.8047 62.9117 40.0398H70.4922V43.343L66.9148 43.614V43.614ZM77.3305 36.5515C75.1141 36.5515 73.8312 35.268 73.8312 33.0515C73.8312 30.8383 75.1141 29.632 77.3305 29.632C79.5851 29.632 80.8672 30.8375 80.8672 33.0515C80.868 35.268 79.5851 36.5515 77.3305 36.5515V36.5515ZM72.3148 59.9109V56.8414L74.2984 56.5695C74.8422 56.4914 74.9195 56.375 74.9195 55.7906V44.3633C74.9195 43.9367 74.8039 43.6633 74.4141 43.5476L72.3148 42.8086L72.7422 39.6617H80.7898V55.7914C80.7898 56.4148 80.8273 56.4914 81.4117 56.5703L83.3945 56.8422V59.9117H72.3148V59.9109ZM98.7656 58.4031C97.093 59.218 94.6453 59.9578 92.4281 59.9578C87.8031 59.9578 86.0547 58.0937 86.0547 53.6992V43.5156C86.0547 43.2836 86.0547 43.1273 85.743 43.1273H83.0226V39.668C86.4445 39.2781 87.8039 37.568 88.2312 33.3312H91.925V38.8523C91.925 39.1234 91.925 39.2414 92.2359 39.2414H97.7164V43.1281H91.925V52.4172C91.925 54.7101 92.4695 55.6039 94.568 55.6039C95.6578 55.6039 96.7836 55.3328 97.7164 54.9828L98.7656 58.4031V58.4031Z" fill="#31251C"/>
<path d="M41.1719 48.2031L23.3992 30.4313C22.9077 29.9399 22.2411 29.6638 21.5461 29.6638C20.8511 29.6638 20.1845 29.9399 19.693 30.4313L16.0023 34.1219L20.6828 38.8031C21.2332 38.616 21.825 38.5868 22.3911 38.7188C22.9573 38.8508 23.4751 39.1387 23.8859 39.55C24.2992 39.9636 24.5878 40.4852 24.7186 41.0551C24.8495 41.625 24.8173 42.2202 24.6258 42.7727L29.1375 47.2844C29.8043 47.052 30.5303 47.0531 31.1964 47.2874C31.8626 47.5217 32.4294 47.9753 32.8039 48.574C33.1785 49.1726 33.3385 49.8807 33.2579 50.5822C33.1773 51.2838 32.8607 51.9371 32.3602 52.4352C31.8506 52.9458 31.1797 53.2639 30.4619 53.3354C29.744 53.4069 29.0236 53.2274 28.4233 52.8273C27.823 52.4273 27.3799 51.8316 27.1695 51.1415C26.9592 50.4515 26.9945 49.7099 27.2695 49.043L23.0617 44.8352L23.0609 55.9086C23.5051 56.128 23.8906 56.45 24.1855 56.848C24.4805 57.2459 24.6764 57.7085 24.757 58.1972C24.8377 58.686 24.8007 59.1869 24.6492 59.6586C24.4977 60.1302 24.2361 60.559 23.8859 60.9094C23.5594 61.2358 23.1645 61.4856 22.7298 61.6409C22.295 61.7962 21.8312 61.853 21.3718 61.8073C20.9124 61.7617 20.4688 61.6146 20.0732 61.3767C19.6775 61.1388 19.3396 60.8161 19.0837 60.4318C18.8279 60.0475 18.6606 59.6112 18.5938 59.1544C18.527 58.6976 18.5624 58.2316 18.6976 57.7902C18.8327 57.3487 19.0641 56.9427 19.3751 56.6016C19.6861 56.2604 20.069 55.9925 20.4961 55.8172V44.6414C20.1152 44.4854 19.769 44.2555 19.4774 43.965C19.1859 43.6745 18.9547 43.3291 18.7973 42.9488C18.6399 42.5685 18.5594 42.1608 18.5604 41.7492C18.5614 41.3376 18.6439 40.9303 18.8031 40.5508L14.1891 35.9352L2.00235 48.1211C1.75878 48.3646 1.56557 48.6537 1.43374 48.9718C1.30192 49.29 1.23407 49.631 1.23407 49.9754C1.23407 50.3198 1.30192 50.6608 1.43374 50.979C1.56557 51.2971 1.75878 51.5862 2.00235 51.8297L19.775 69.6016C20.2668 70.093 20.9336 70.3691 21.6289 70.3691C22.3242 70.3691 22.991 70.093 23.4828 69.6016L41.1719 51.9109C41.4154 51.6675 41.6086 51.3785 41.7404 51.0604C41.8723 50.7423 41.9401 50.4014 41.9401 50.057C41.9401 49.7127 41.8723 49.3718 41.7404 49.0537C41.6086 48.7356 41.4154 48.4465 41.1719 48.2031V48.2031Z" fill="#F34F29"/>
</svg>
