<svg width="800" height="337" viewBox="0 0 800 337" fill="none" xmlns="http://www.w3.org/2000/svg">
<g clip-path="url(#clip0_159_51)">
<path d="M478.068 116.296C460.588 116.296 447.562 124.888 447.562 145.549C447.562 161.114 456.135 171.931 477.125 171.931C494.919 171.931 507.007 161.458 507.007 144.906C507.007 126.155 496.19 116.296 478.068 116.296ZM443.109 262.232C438.97 267.31 434.846 272.716 434.846 279.079C434.846 291.792 451.043 295.605 473.301 295.605C491.752 295.605 516.866 294.32 516.866 277.184C516.866 266.981 504.782 266.353 489.512 265.395L443.109 262.232ZM537.213 117.253C542.922 124.574 548.975 134.747 548.975 149.374C548.975 184.647 521.319 205.322 481.264 205.322C471.076 205.322 461.859 204.051 456.135 202.455L445.651 219.306L476.796 221.205C531.807 224.712 564.227 226.312 564.227 268.577C564.227 305.136 532.121 325.801 476.796 325.801C419.262 325.801 397.319 311.174 397.319 286.057C397.319 271.748 403.682 264.139 414.813 253.626C404.311 249.202 400.829 241.253 400.829 232.661C400.829 225.669 404.311 219.306 410.046 213.257C415.766 207.222 422.119 201.184 429.754 194.192C414.185 186.557 402.411 170.02 402.411 146.491C402.411 109.932 426.568 84.8292 475.215 84.8292C488.884 84.8292 497.147 86.0858 504.468 88.0146H566.466V115.025L537.217 117.253" fill="white"/>
<mask id="mask0_159_51" style="mask-type:luminance" maskUnits="userSpaceOnUse" x="580" y="2" width="93" height="251">
<path d="M580.822 2.88586H672.146V252.055H580.822V2.88586Z" fill="white"/>
</mask>
<g mask="url(#mask0_159_51)">
<path d="M622.389 59.474C604.266 59.474 593.779 48.99 593.779 30.8493C593.779 12.7416 604.266 2.8822 622.389 2.8822C640.836 2.8822 651.328 12.7452 651.328 30.8493C651.328 48.9863 640.84 59.474 622.389 59.474ZM581.377 250.542V225.425L597.589 223.211C602.042 222.572 602.681 221.615 602.681 216.833V123.372C602.681 119.89 601.728 117.651 598.546 116.709L581.377 110.659L584.873 84.9169H650.685V216.84C650.685 221.951 650.999 222.575 655.781 223.218L671.989 225.432V250.546L581.377 250.542Z" fill="white"/>
</g>
<mask id="mask1_159_51" style="mask-type:luminance" maskUnits="userSpaceOnUse" x="668" y="32" width="130" height="221">
<path d="M668.493 32.8767H797.702V252.055H668.493V32.8767Z" fill="white"/>
</mask>
<g mask="url(#mask1_159_51)">
<path d="M797.702 238.21C784.033 244.877 764.011 250.926 745.878 250.926C708.047 250.926 693.75 235.675 693.75 199.73V116.453C693.75 114.539 693.75 113.271 691.193 113.271H668.935V84.9753C696.931 81.7935 708.047 67.7954 711.543 33.147H741.753V78.2977C741.753 80.5223 741.753 81.4757 744.292 81.4757H789.114V113.271H741.753V189.242C741.753 208.004 746.203 215.31 763.372 215.31C772.274 215.31 781.49 213.085 789.114 210.232L797.702 238.21Z" fill="white"/>
</g>
<mask id="mask2_159_51" style="mask-type:luminance" maskUnits="userSpaceOnUse" x="0" y="2" width="337" height="335">
<path d="M0 2.88586H336.073V336.073H0V2.88586Z" fill="white"/>
</mask>
<g mask="url(#mask2_159_51)">
<path d="M326.656 154.78L181.293 9.43202C179.303 7.44077 176.939 5.86119 174.338 4.7835C171.737 3.70581 168.949 3.15112 166.133 3.15112C163.318 3.15112 160.53 3.70581 157.929 4.7835C155.328 5.86119 152.964 7.44077 150.974 9.43202L120.789 39.6128L159.072 77.9106C163.573 76.3762 168.413 76.1338 173.045 77.2108C177.676 78.2878 181.913 80.6411 185.275 84.0037C188.653 87.3877 191.012 91.6534 192.081 96.3138C193.151 100.974 192.889 105.841 191.324 110.36L228.227 147.273C232.744 145.703 237.613 145.437 242.274 146.508C246.935 147.579 251.2 149.942 254.579 153.326C256.951 155.693 258.832 158.504 260.116 161.599C261.399 164.694 262.06 168.012 262.06 171.363C262.06 174.713 261.399 178.031 260.116 181.126C258.832 184.221 256.951 187.032 254.579 189.399C252.211 191.771 249.398 193.653 246.302 194.937C243.206 196.221 239.887 196.881 236.535 196.881C233.183 196.881 229.865 196.221 226.768 194.937C223.672 193.653 220.86 191.771 218.491 189.399C214.934 185.838 212.509 181.304 211.522 176.368C210.535 171.432 211.029 166.314 212.943 161.659L178.524 127.24V217.808C181.023 219.036 183.303 220.665 185.275 222.63C190.059 227.417 192.747 233.908 192.747 240.676C192.747 247.444 190.059 253.935 185.275 258.722C175.302 268.68 159.145 268.68 149.202 258.722C146.829 256.353 144.947 253.54 143.663 250.444C142.379 247.347 141.718 244.028 141.718 240.676C141.718 237.324 142.379 234.004 143.663 230.908C144.947 227.811 146.829 224.998 149.202 222.63C151.583 220.235 154.422 218.343 157.549 217.067V125.655C154.422 124.379 151.583 122.487 149.202 120.091C145.62 116.512 143.184 111.948 142.203 106.981C141.222 102.013 141.741 96.8658 143.693 92.1937L105.951 54.4366L6.27955 154.108C4.28776 156.098 2.70771 158.462 1.6297 161.064C0.551685 163.665 -0.00317383 166.453 -0.00317383 169.269C-0.00317383 172.085 0.551685 174.874 1.6297 177.475C2.70771 180.077 4.28776 182.44 6.27955 184.431L151.642 329.794C153.633 331.785 155.996 333.364 158.597 334.442C161.198 335.52 163.986 336.075 166.802 336.075C169.618 336.075 172.405 335.52 175.007 334.442C177.608 333.364 179.971 331.785 181.962 329.794L326.656 185.118C330.678 181.095 332.938 175.638 332.938 169.949C332.938 164.26 330.678 158.803 326.656 154.78Z" fill="white"/>
</g>
</g>
<defs>
<clipPath id="clip0_159_51">
<rect width="800" height="336.073" fill="white"/>
</clipPath>
</defs>
</svg>
