<svg width="100" height="100" viewBox="0 0 100 100" fill="none" xmlns="http://www.w3.org/2000/svg">
<path d="M27.6461 56.0859L25.3906 54.7875L50.5094 11.4828L52.7617 12.7766L27.6461 56.0859Z" fill="#E434AA"/>
<path d="M24.875 51.3281H75.1094V53.9219H24.875V51.3281Z" fill="#E434AA"/>
<path d="M50.9945 67.2266L25.8695 52.7859L27.1695 50.5398L52.2977 64.9813L50.9945 67.2266ZM72.8242 29.5867L47.6953 15.1461L48.9984 12.9031L74.1242 27.3438L72.8242 29.5867Z" fill="#E434AA"/>
<path d="M27.1758 29.5781L25.8758 27.3344L51.0039 12.8937L52.3039 15.1367L27.1758 29.5781Z" fill="#E434AA"/>
<path d="M72.3602 56.0859L47.2422 12.7766L49.4969 11.4828L74.6164 54.7875L72.3602 56.0859ZM26.8672 25.6172H29.4711V54.4984H26.8672V25.6172Z" fill="#E434AA"/>
<path d="M70.5289 25.6172H73.132V54.4984H70.5289V25.6172Z" fill="#E434AA"/>
<path d="M50.5523 66.1289L49.4141 64.1695L71.268 51.6086L72.4063 53.5672L50.5523 66.1289Z" fill="#E434AA"/>
<path d="M76.5836 55.3406C75.0797 57.95 71.7227 58.8383 69.1039 57.3398C68.4817 56.9841 67.9359 56.5089 67.4979 55.9416C67.0599 55.3742 66.7384 54.7259 66.5518 54.0338C66.3652 53.3418 66.3172 52.6197 66.4106 51.9091C66.5041 51.1984 66.737 50.5133 67.0961 49.893C68.6008 47.2836 71.957 46.3961 74.5758 47.8945C77.2125 49.4078 78.107 52.7344 76.5836 55.3398M32.8891 30.2219C31.3844 32.8281 28.0273 33.7188 25.4086 32.2203C24.7864 31.8642 24.2407 31.3887 23.8028 30.8211C23.3649 30.2535 23.0435 29.605 22.8569 28.9129C22.6704 28.2207 22.6224 27.4985 22.7157 26.7877C22.809 26.077 23.0418 25.3916 23.4008 24.7711C24.9055 22.1648 28.2625 21.2734 30.8805 22.7719C33.4992 24.2891 34.393 27.6125 32.8883 30.2219M23.4164 55.3406C21.9086 52.7344 22.8031 49.4078 25.4242 47.8945C28.043 46.3961 31.3844 47.2836 32.9039 49.893C34.4117 52.4992 33.5172 55.8258 30.8961 57.3398C28.2625 58.8383 24.9203 57.9492 23.4164 55.3398M67.1109 30.2219C65.607 27.6125 66.5016 24.2891 69.1187 22.7719C71.7375 21.2734 75.0797 22.1648 76.5992 24.7711C78.107 27.3805 77.2125 30.7039 74.5914 32.2203C71.9727 33.7188 68.6156 32.8281 67.1109 30.2219ZM50 70.6266C46.9727 70.6266 44.525 68.1914 44.525 65.1766C44.525 62.1641 46.9727 59.7289 50 59.7289C53.0273 59.7289 55.475 62.1641 55.475 65.1766C55.475 68.1734 53.0273 70.6266 50 70.6266M50 20.3859C46.9727 20.3859 44.525 17.9508 44.525 14.9352C44.525 11.9234 46.9727 9.48828 50 9.48828C53.0273 9.48828 55.475 11.9234 55.475 14.9352C55.475 17.9508 53.0273 20.3859 50 20.3859M83.3008 94.9281C83.2363 94.9315 83.1719 94.9215 83.1114 94.8989C83.0509 94.8764 82.9957 94.8416 82.9492 94.7969C82.9041 94.7505 82.869 94.6954 82.846 94.6349C82.823 94.5745 82.8127 94.5099 82.8156 94.4453V80.0203C82.8156 79.8734 82.8609 79.7547 82.95 79.6664C82.9964 79.6217 83.0515 79.5871 83.1118 79.5645C83.1721 79.5419 83.2364 79.5319 83.3008 79.5352H83.7227C83.8687 79.5352 83.9875 79.5773 84.0758 79.6664C84.1205 79.7134 84.1552 79.769 84.1777 79.8299C84.2003 79.8907 84.2103 79.9555 84.207 80.0203V93.6094H91.8305C91.9922 93.6094 92.1172 93.6523 92.2055 93.7406C92.2945 93.8297 92.3367 93.9547 92.3367 94.1133V94.4461C92.3399 94.5104 92.33 94.5747 92.3074 94.6351C92.2848 94.6954 92.2501 94.7505 92.2055 94.7969C92.1172 94.8852 91.9922 94.9281 91.8305 94.9281H83.3008ZM78.1984 96.3562C78.1195 96.3571 78.0413 96.3409 77.9692 96.3088C77.8971 96.2767 77.8327 96.2295 77.7805 96.1703C77.6811 96.0676 77.5852 95.9615 77.493 95.8523L76.5195 94.5102C75.6375 94.9344 74.6062 95.1477 73.4281 95.1477C72.2047 95.1477 71.1672 94.9312 70.3125 94.5008C69.4578 94.0672 68.8016 93.3992 68.3469 92.4984C67.8891 91.5953 67.6391 90.457 67.5969 89.0781C67.5813 88.4188 67.5719 87.8023 67.5719 87.2313C67.5719 86.6609 67.5813 86.0437 67.5961 85.3852C67.6391 84.0211 67.9047 82.8891 68.3898 81.9852C68.875 81.0852 69.5492 80.4141 70.4133 79.9742C71.2734 79.5352 72.2781 79.3148 73.4289 79.3148C74.5758 79.3148 75.5797 79.5352 76.4437 79.9742C77.3039 80.4141 77.9812 81.0852 78.4758 81.9852C78.968 82.8891 79.2297 84.0211 79.2602 85.3852C79.2872 86.0002 79.3015 86.6157 79.3031 87.2313C79.3031 87.8016 79.2875 88.4188 79.2602 89.0781C79.1867 91.1742 78.6469 92.7156 77.6461 93.6984L79.0617 95.675C79.0795 95.6987 79.094 95.7247 79.1047 95.7523C79.1203 95.7883 79.1258 95.8438 79.1258 95.9164C79.1264 95.9741 79.115 96.0313 79.0925 96.0844C79.0699 96.1376 79.0365 96.1854 78.9945 96.225C78.9549 96.2667 78.9071 96.2998 78.8542 96.3224C78.8012 96.345 78.7443 96.3565 78.6867 96.3562H78.1984ZM73.4281 93.8297C74.6945 93.8297 75.7352 93.4477 76.5531 92.6852C77.3711 91.9219 77.8078 90.6828 77.8687 88.968C77.8961 88.3086 77.9117 87.7289 77.9117 87.2313C77.9117 86.7344 77.8961 86.1539 77.8687 85.4953C77.8375 84.3508 77.6273 83.4195 77.2367 82.7023C76.8461 81.9828 76.3242 81.4602 75.668 81.1281C75.0156 80.7984 74.2672 80.6336 73.4281 80.6336C72.6016 80.6336 71.8625 80.7977 71.207 81.1281C70.5508 81.4609 70.0289 81.9828 69.6383 82.7023C69.2477 83.4195 69.0305 84.3508 68.9883 85.4953C68.9727 86.1539 68.9633 86.7344 68.9633 87.2313C68.9633 87.7289 68.9727 88.3094 68.9883 88.968C69.0461 90.6828 69.4883 91.9219 70.3125 92.6852C71.1367 93.4477 72.1742 93.8297 73.4281 93.8297ZM55.3555 94.9281C55.2911 94.9314 55.2268 94.9214 55.1665 94.8988C55.1062 94.8762 55.0511 94.8415 55.0047 94.7969C54.9594 94.7506 54.9242 94.6955 54.9011 94.635C54.878 94.5745 54.8675 94.51 54.8703 94.4453V79.7969C54.8703 79.6508 54.9164 79.5352 55.0047 79.4461C55.0512 79.4013 55.1064 79.3666 55.1669 79.344C55.2273 79.3214 55.2918 79.3115 55.3563 79.3148H55.7312C55.8805 79.3148 55.9969 79.3578 56.0852 79.4461C56.1304 79.4924 56.1657 79.5475 56.1888 79.6079C56.2119 79.6684 56.2224 79.733 56.2195 79.7977V85.0094C56.6128 84.4994 57.1049 84.074 57.6664 83.7586C58.2336 83.4352 58.9867 83.2734 59.9305 83.2734C60.9312 83.2734 61.768 83.4898 62.4359 83.9234C63.1078 84.3531 63.6078 84.9391 63.9406 85.6812C64.2703 86.4234 64.4375 87.2617 64.4375 88.1992V94.4461C64.4403 94.5106 64.4299 94.575 64.4069 94.6353C64.384 94.6956 64.3489 94.7506 64.3039 94.7969C64.257 94.8419 64.2012 94.8768 64.1402 94.8994C64.0792 94.922 64.0142 94.9318 63.9492 94.9281H63.5742C63.5094 94.9314 63.4446 94.9214 63.3838 94.8988C63.323 94.8763 63.2673 94.8416 63.2203 94.7969C63.1756 94.7504 63.1408 94.6952 63.1182 94.6347C63.0957 94.5742 63.0857 94.5098 63.0891 94.4453V88.3086C63.0891 87.1367 62.8023 86.2148 62.2281 85.55C61.6516 84.8812 60.8125 84.5492 59.7078 84.5492C58.6641 84.5492 57.8219 84.8813 57.1805 85.5492C56.5398 86.2148 56.2195 87.1367 56.2195 88.3086V94.4461C56.2223 94.5106 56.2117 94.575 56.1886 94.6354C56.1655 94.6957 56.1303 94.7507 56.0852 94.7969C56.0383 94.8418 55.9827 94.8767 55.9218 94.8992C55.8609 94.9218 55.7961 94.9316 55.7312 94.9281H55.3555ZM42.5234 99.1055C42.4586 99.109 42.3937 99.0992 42.3329 99.0766C42.272 99.054 42.2164 99.0192 42.1695 98.9742C42.1244 98.928 42.0892 98.873 42.0661 98.8127C42.043 98.7524 42.0324 98.688 42.0352 98.6234V83.9781C42.0352 83.832 42.0805 83.7125 42.1695 83.6242C42.2164 83.5793 42.272 83.5444 42.3329 83.5219C42.3937 83.4993 42.4586 83.4895 42.5234 83.493H42.8984C43.0453 83.493 43.1641 83.5359 43.2523 83.6242C43.2971 83.6712 43.3317 83.7269 43.3543 83.7877C43.3769 83.8485 43.3868 83.9133 43.3836 83.9781V85.0094C43.7531 84.5125 44.2352 84.0977 44.8305 83.7672C45.4281 83.4383 46.182 83.2734 47.0945 83.2734C47.9648 83.2734 48.6938 83.4227 49.2828 83.725C49.8487 84.0048 50.3403 84.4147 50.7172 84.9211C51.0867 85.4211 51.3578 85.9773 51.5352 86.593C51.7117 87.2102 51.8063 87.8391 51.8219 88.4859C51.8375 88.7055 51.843 88.9469 51.843 89.2125C51.843 89.4742 51.8375 89.7156 51.8219 89.9352C51.808 90.5756 51.7117 91.2116 51.5352 91.8273C51.3578 92.4445 51.0867 92.9992 50.7172 93.4992C50.3404 94.0059 49.8488 94.4161 49.2828 94.6961C48.6938 94.9984 47.9648 95.1477 47.0953 95.1477C46.182 95.1477 45.4281 94.9797 44.8297 94.6414C44.2359 94.3055 43.7531 93.8938 43.3844 93.4109V98.6234C43.3876 98.688 43.3776 98.7524 43.3548 98.8129C43.3321 98.8734 43.2972 98.9286 43.2523 98.975C43.2053 99.0196 43.1496 99.0541 43.0888 99.0765C43.0279 99.099 42.9632 99.1088 42.8984 99.1055H42.5234ZM46.9633 93.8719C47.8305 93.8719 48.5172 93.6828 49.018 93.3016C49.5179 92.9203 49.8945 92.4002 50.1008 91.8063C50.3203 91.1891 50.4453 90.5305 50.4758 89.8258C50.488 89.4157 50.488 89.0054 50.4758 88.5953C50.4509 87.9201 50.3245 87.2524 50.1008 86.6148C49.8935 86.0212 49.5168 85.5013 49.0172 85.1195C48.5172 84.7383 47.8297 84.5492 46.9633 84.5492C46.1242 84.5492 45.4469 84.7477 44.9313 85.1406C44.4252 85.525 44.032 86.0385 43.793 86.6273C43.555 87.1966 43.4165 87.8026 43.3836 88.4188C43.368 88.6383 43.3625 88.925 43.3625 89.2758C43.3625 89.6273 43.3688 89.9141 43.3836 90.1336C43.3992 90.7195 43.5336 91.2992 43.793 91.8703C44.0491 92.4433 44.4537 92.9374 44.9648 93.3016C45.4867 93.6828 46.1523 93.8719 46.9633 93.8719V93.8719ZM33.2672 95.1484C32.5898 95.1554 31.9201 95.0048 31.3109 94.7086C30.7421 94.4364 30.2464 94.0325 29.8648 93.5305C29.5005 93.0543 29.306 92.4699 29.3125 91.8703C29.3125 90.875 29.7188 90.0758 30.5266 89.4742C31.3352 88.8727 32.3883 88.4859 33.6852 88.3086L37.1766 87.8266V87.0547C37.1766 86.2789 36.9352 85.6656 36.4594 85.2203C35.9805 84.7719 35.2172 84.5484 34.1703 84.5484C33.4047 84.5484 32.7875 84.6984 32.3148 85.0008C31.8453 85.3 31.5219 85.693 31.3445 86.1758C31.2711 86.3945 31.1313 86.5055 30.9234 86.5055H30.5719C30.3953 86.5055 30.2703 86.4594 30.1938 86.3617C30.1198 86.2644 30.0812 86.1448 30.0844 86.0227C30.0844 85.8156 30.1633 85.5594 30.3164 85.2539C30.4719 84.9453 30.7102 84.6406 31.0367 84.3383C31.3602 84.0391 31.7781 83.7859 32.2938 83.5813C32.8094 83.3773 33.4344 83.2734 34.1703 83.2734C35.0406 83.2734 35.7578 83.3891 36.325 83.625C36.893 83.8594 37.3352 84.1641 37.6531 84.5367C37.9672 84.9117 38.1922 85.3273 38.3242 85.7789C38.4586 86.2336 38.5227 86.682 38.5227 87.1219V94.4461C38.5259 94.5104 38.5159 94.5747 38.4933 94.6351C38.4708 94.6954 38.4361 94.7505 38.3914 94.7969C38.3444 94.8416 38.2888 94.8763 38.2279 94.8988C38.1671 94.9214 38.1023 94.9314 38.0375 94.9281H37.6617C37.5969 94.9314 37.5321 94.9214 37.4713 94.8988C37.4105 94.8763 37.3548 94.8416 37.3078 94.7969C37.2631 94.7504 37.2283 94.6952 37.2057 94.6347C37.1832 94.5742 37.1732 94.5098 37.1766 94.4453V93.4109C36.9664 93.7098 36.7134 93.9762 36.4258 94.2016C36.1023 94.4672 35.6836 94.6898 35.1773 94.8734C34.668 95.0562 34.0328 95.1477 33.2672 95.1477V95.1484ZM33.4867 93.8719C34.1641 93.8719 34.7836 93.7258 35.3422 93.4328C35.9008 93.1398 36.3461 92.6883 36.6789 92.0812C37.0117 91.4734 37.1766 90.707 37.1766 89.7828V89.0352L34.3266 89.432C33.118 89.5906 32.2055 89.8711 31.5859 90.2648C30.9688 90.6617 30.6578 91.1594 30.6578 91.7602C30.6578 92.2453 30.7984 92.6422 31.0797 92.9508C31.3602 93.2555 31.7172 93.4875 32.15 93.6398C32.5836 93.7961 33.0289 93.8719 33.4867 93.8719V93.8719ZM23.1477 94.9281C23.0829 94.9314 23.0181 94.9214 22.9572 94.8988C22.8964 94.8763 22.8408 94.8416 22.7938 94.7969C22.7496 94.7499 22.7152 94.6947 22.6927 94.6343C22.6702 94.5739 22.6599 94.5097 22.6625 94.4453V84C22.6625 83.8531 22.7078 83.7313 22.7938 83.6367C22.8392 83.589 22.8942 83.5515 22.9552 83.5267C23.0162 83.502 23.0818 83.4904 23.1477 83.493H23.5016C23.6484 83.493 23.7703 83.5422 23.868 83.6367C23.9152 83.6844 23.9522 83.7412 23.9768 83.8037C24.0014 83.8661 24.013 83.9329 24.0109 84V85.0102C24.2577 84.5137 24.6614 84.1125 25.1594 83.8688C25.6594 83.6188 26.2789 83.4938 27.0141 83.4938H27.832C27.9789 83.4938 28.0977 83.5359 28.1859 83.6242C28.2306 83.6712 28.2653 83.7269 28.2879 83.7877C28.3105 83.8485 28.3204 83.9133 28.3172 83.9781V84.2828C28.3172 84.4328 28.2742 84.5484 28.1859 84.6375C28.1389 84.6822 28.0833 84.7169 28.0225 84.7395C27.9616 84.762 27.8968 84.772 27.832 84.7687H26.8828C25.9977 84.7687 25.2992 85.025 24.7836 85.5375C24.268 86.0508 24.0109 86.7492 24.0109 87.6281V94.4461C24.0135 94.5114 24.0021 94.5765 23.9774 94.637C23.9528 94.6975 23.9155 94.752 23.868 94.7969C23.7672 94.8861 23.636 94.9331 23.5016 94.9281H23.1477ZM13.5836 95.1484C12.3172 95.1484 11.2516 94.9039 10.3914 94.4125C9.54624 93.9375 8.86188 93.2213 8.42578 92.3555C7.97422 91.4766 7.73047 90.4633 7.6836 89.3219C7.66875 88.6594 7.66328 87.9641 7.66328 87.2313C7.66328 86.4992 7.66875 85.8031 7.68438 85.1406C7.73047 83.9844 7.97422 82.9687 8.42657 82.0953C8.86747 81.2324 9.55564 80.5206 10.4031 80.0508C11.2703 79.5586 12.3328 79.3148 13.5828 79.3148C14.6 79.3148 15.4695 79.4648 16.1898 79.7672C16.9125 80.0656 17.5023 80.4414 17.9563 80.8867C18.4141 81.3352 18.7531 81.7844 18.9727 82.2383C19.1953 82.6937 19.3117 83.0742 19.3266 83.3828C19.3366 83.4407 19.3319 83.5003 19.3128 83.5559C19.2936 83.6115 19.2608 83.6613 19.2172 83.7008C19.1194 83.7857 18.9926 83.8294 18.8633 83.8227H18.3773C18.2438 83.8227 18.1484 83.7891 18.0906 83.725C18.0297 83.6578 17.9719 83.5453 17.9141 83.3828C17.7519 82.9035 17.5 82.4594 17.1719 82.0742C16.8281 81.6563 16.3633 81.3109 15.7813 81.043C15.2008 80.7711 14.4656 80.6336 13.5836 80.6336C12.2711 80.6336 11.2086 80.9906 10.3914 81.7016C9.57344 82.4125 9.13672 83.5969 9.07578 85.2539C9.03307 86.5728 9.03307 87.8928 9.07578 89.2117C9.13672 90.8539 9.57344 92.032 10.3914 92.7523C11.2094 93.4695 12.2711 93.8297 13.5836 93.8297C14.4531 93.8297 15.232 93.6648 15.9242 93.3352C16.6134 93.0094 17.1849 92.4783 17.5602 91.8148C17.9563 91.1352 18.1547 90.2648 18.1547 89.2117V88.0891H14.3125C14.2467 88.0916 14.1811 88.0801 14.1201 88.0553C14.0591 88.0305 14.004 87.993 13.9586 87.9453C13.869 87.8461 13.8219 87.7156 13.8273 87.582V87.2742C13.8273 87.1156 13.8703 86.9906 13.9586 86.9016C14.0056 86.8569 14.0612 86.8222 14.1221 86.7996C14.1829 86.777 14.2477 86.7671 14.3125 86.7703H19.0398C19.2016 86.7703 19.3266 86.8133 19.4148 86.9016C19.5039 86.9906 19.5469 87.1156 19.5469 87.2742V89.2117C19.5469 90.3836 19.3148 91.4188 18.8508 92.3133C18.3972 93.1965 17.689 93.9234 16.818 94.4C15.9273 94.8977 14.8492 95.1477 13.5836 95.1477V95.1484Z" fill="#E434AA"/>
</svg>
