<svg width="100" height="100" viewBox="0 0 100 100" fill="none" xmlns="http://www.w3.org/2000/svg">
<path d="M23.5938 35.8594H42.4219V37.3437H25.3125V48.5938H41.4062V50.0781H25.3125V62.4219H42.6562V63.9062H23.5938V35.8594ZM44.1406 35.8594H46.1719L55.0781 48.2031L64.0625 35.8594L76.4063 20.2344L56.0938 49.5312L66.5625 63.9062H64.4531L55 50.7812L45.4688 63.9062H43.4375L53.9844 49.5312L44.1406 35.8594V35.8594ZM67.3437 37.3437V35.8594H88.8281V37.3437H78.9062V63.9062H77.1875V37.3437H67.3437ZM0 35.8594H2.10938L31.9531 80.2344L19.6094 63.9062L1.79687 37.9687L1.71875 63.9062H0V35.8594ZM88.6719 61.9531C89.0625 61.9531 89.2969 61.7187 89.2969 61.3281C89.2969 60.9375 89.0625 60.7031 88.6719 60.7031C88.2812 60.7031 88.0469 60.9375 88.0469 61.3281C88.0469 61.7187 88.3594 61.9531 88.6719 61.9531ZM90.3906 60.3125C90.3906 61.3281 91.1719 62.0312 92.2656 62.0312C93.4375 62.0312 94.1406 61.3281 94.1406 60.0781V55.7812H93.2031V60.0781C93.2031 60.7812 92.8906 61.0937 92.2656 61.0937C91.7187 61.0937 91.3281 60.7812 91.3281 60.2344H90.3906V60.3125ZM95.3125 60.2344C95.3906 61.3281 96.25 62.0312 97.6562 62.0312C99.0625 62.0312 100 61.3281 100 60.1562C100 59.2187 99.4531 58.75 98.2813 58.4375L97.5781 58.2812C96.7969 58.125 96.4844 57.8125 96.4844 57.4219C96.4844 56.875 96.9531 56.4844 97.7344 56.4844C98.4375 56.4844 98.9062 56.7969 98.9844 57.4219H99.9219C99.8438 56.4062 98.9844 55.7031 97.7344 55.7031C96.4062 55.7031 95.5469 56.4062 95.5469 57.5C95.5469 58.3594 96.0156 58.9062 97.1094 59.1406L97.8906 59.2969C98.6719 59.4531 99.0625 59.7656 99.0625 60.2344C99.0625 60.7812 98.5156 61.1719 97.7344 61.1719C96.9531 61.1719 96.3281 60.7812 96.25 60.2344H95.3125V60.2344Z" fill="black"/>
</svg>
