<svg width="100" height="100" viewBox="0 0 100 100" fill="none" xmlns="http://www.w3.org/2000/svg">
<path fill-rule="evenodd" clip-rule="evenodd" d="M0.952332 43.8719C0.952332 44.4211 1.11405 44.7836 1.20468 45.1359C1.7953 47.4273 3.06483 49.3937 4.57108 51.1875C6.71639 53.7437 9.34374 55.8016 12.0351 57.7367C14.3695 59.4148 16.7515 61.0555 19.0953 62.7211C19.4976 63.007 19.8781 63.3359 20.3148 63.6867C19.939 63.8898 19.6265 64.0688 19.3015 64.2336C16.2086 65.8023 13.2328 67.5609 10.4898 69.6914C8.83671 70.9758 7.23827 72.3406 6.10936 74.1242C4.29296 76.993 3.64999 80.0492 5.00389 83.3125C5.39921 84.2656 6.00233 85.0891 6.85311 85.6977C7.12889 85.8945 7.43827 86.0898 7.76092 86.1664C8.58749 86.3609 9.42967 86.4883 10.2664 86.6422L12.6359 86.6406C15.2562 86.407 17.6414 85.5094 19.7969 84.0219C23.1656 81.6969 25.4351 78.5797 26.4109 74.5789C27.1203 71.6711 27.1492 68.7602 26.3133 65.8656C26.2333 65.5975 26.141 65.3331 26.0367 65.0734C25.9351 64.8133 25.8156 64.5602 25.675 64.2359L31.0469 61.1469L31.1273 61.2156C31.0297 61.5352 30.9258 61.8539 30.8375 62.1766C30.1992 64.5078 29.775 66.8797 29.9273 69.2992C30.0898 71.8773 30.8094 74.2906 32.3187 76.4445C33.539 78.1867 36.4469 78.2516 37.7437 76.5031C38.2039 75.882 38.65 75.2328 38.9851 74.5398C39.8609 72.7313 40.6719 70.8906 41.5086 69.0625L41.6547 68.7281C41.5945 69.5938 41.5242 70.3539 41.4922 71.1148C41.4422 72.3031 41.5117 73.4844 41.918 74.6148C42.2656 75.582 42.857 76.3047 43.9648 76.432C44.7226 76.5188 45.3265 76.1719 45.8836 75.732C46.7465 75.0501 47.4618 74.1998 47.9859 73.2328C49.4711 70.5055 50.9961 67.7945 52.3422 64.9984C53.7984 61.9742 55.0719 58.8617 56.4242 55.7859L56.6476 55.2406C56.9672 56.4961 57.1898 57.7258 57.6 58.8898C58.0765 60.2406 58.6664 61.5594 59.3086 62.8414C59.6125 63.4469 59.5773 63.8398 59.1562 64.3477C57.3937 66.4727 55.6617 68.6234 53.9281 70.7719C53.5445 71.2461 53.1625 71.7289 52.843 72.2469C52.6491 72.574 52.5217 72.9361 52.4679 73.3125C52.4142 73.659 52.4967 74.0129 52.6981 74.3C52.8995 74.5871 53.2043 74.785 53.5484 74.8523C54.243 75.0019 54.9553 75.0527 55.664 75.0031C58.0836 74.825 60.2804 73.9758 62.2226 72.5367C64.739 70.6727 65.5469 68.1289 64.9375 65.1141C64.7726 64.2961 64.4812 63.5008 64.1976 62.7125C64.0703 62.357 64.0617 62.1078 64.2937 61.7766C66.3054 58.9039 68.0242 55.8562 69.6226 52.7383C69.6859 52.6156 69.7508 52.493 69.8617 52.3617C70.3797 55.057 71.1594 57.6547 72.5562 60.0117C71.8437 60.6984 71.1383 61.3211 70.5 62.007C69.0945 63.518 67.8758 65.1586 67.2398 67.1594C66.9664 68.0219 66.7562 68.8984 66.8781 69.8195C67.0672 71.25 68.239 72.1797 69.6461 71.8539C72.657 71.157 75.2562 69.7383 77.1555 67.225C78.4336 65.5328 78.55 63.6453 78.0148 61.668C77.868 61.1305 77.6937 60.6016 77.5062 59.9852C78.2492 59.7547 78.9734 59.4781 79.7226 59.307C83.6125 58.4195 87.4601 58.5742 91.2086 59.9789C93.3969 60.7992 95.1648 62.1719 96.2133 64.3313C97.4937 66.9711 96.7859 69.4758 94.2976 71.1445C94.0656 71.3 93.8 71.4227 93.6078 71.6172C93.5462 71.6885 93.5002 71.7719 93.4726 71.862C93.445 71.9522 93.4365 72.047 93.4476 72.1406C93.464 72.2367 93.718 72.357 93.864 72.3555C94.682 72.3492 95.3453 71.9203 95.982 71.4797C97.5773 70.3758 98.7414 68.8906 98.9922 66.9352L99.0414 66.7883L98.9812 65.5148C98.957 65.4414 98.9992 65.3687 98.9937 65.3133C98.6547 62.4656 97.1336 60.257 94.9211 58.5258C92.3586 56.5219 89.3328 55.6969 86.1328 55.5664C83.5375 55.4547 80.9455 55.8537 78.5039 56.7406C77.8031 56.9945 77.1086 57.2953 76.4039 57.5789C76.3094 57.4078 76.2078 57.2438 76.1242 57.0742C75.4008 55.593 74.5242 54.1773 74.3304 52.4789C74.1929 51.2727 74.0242 50.068 74.3109 48.875C74.5867 47.7273 74.9461 46.5992 75.2844 45.4672C75.4586 44.8844 75.3359 44.5578 74.7797 44.2953C74.5859 44.1987 74.379 44.1308 74.1656 44.0937C72.7984 43.8953 71.45 44.0086 70.1258 44.3938C69.657 44.5305 69.3164 44.793 69.2125 45.3117C69.1531 45.6094 69.032 45.8945 68.9476 46.1883C68.6015 47.4094 68.3562 48.6539 67.7969 49.8172C66.3953 52.7352 64.7953 55.543 63.1578 58.3305C62.9805 58.6313 62.7937 58.9266 62.5703 59.2914C61.9953 58.0883 61.382 57.0086 61.1961 55.743C60.9859 54.3117 60.8203 52.8828 61.1765 51.4625C61.4414 50.4031 61.7875 49.3633 62.1062 48.318C62.257 47.8211 62.1875 47.5602 61.7375 47.2984C61.5101 47.1664 61.2531 47.0492 60.9969 47.0109C59.595 46.7974 58.1626 46.9146 56.814 47.3531C56.3898 47.4906 56.1672 47.7648 56.0375 48.2023C55.6562 49.493 55.3312 50.8148 54.7961 52.0422C52.6289 57.0109 50.3992 61.9539 48.1719 66.8961C47.707 67.9281 47.1625 68.9242 46.6383 69.9289C46.5055 70.1836 46.3117 70.4078 46.1461 70.6469C46.0133 70.4898 45.9617 70.382 45.9625 70.2742C45.9664 69.6391 45.8906 68.9852 46.0117 68.3711C46.3836 66.5139 46.7946 64.6648 47.2445 62.825C47.6117 61.3047 48.039 59.7984 48.4461 58.2883C48.5828 57.7828 48.5851 57.3102 48.2219 56.8852C47.6117 56.1734 46.3367 56.0172 45.5805 56.5656L45.2461 56.7547L45.3109 56.2156C45.4703 55.0602 45.5023 53.9086 45.1851 52.7703C44.7898 51.3516 43.7773 50.5352 42.3055 50.5805C41.6195 50.6016 40.8992 50.7187 40.264 50.9687C37.593 52.0156 35.539 53.8695 33.7906 56.1C33.6285 56.3071 33.4276 56.4806 33.1992 56.6109C30.939 57.8641 28.6719 59.1016 26.4055 60.3437L23.8828 61.7258C23.2062 61.0805 22.5914 60.4109 21.8937 59.843C19.7633 58.1055 17.5984 56.4109 15.4531 54.693C13.5515 53.1703 11.7094 51.5844 10.3 49.568C9.25155 48.068 8.57577 46.4266 8.51092 44.5719C8.42889 42.2086 9.09921 40.0492 10.3023 38.0391C11.8414 35.4672 13.9406 33.4031 16.2484 31.5336C18.6898 29.557 21.3305 27.8789 24.0672 26.3469C27.8961 24.2039 31.8344 22.307 36.057 21.0547C40.3867 19.7703 44.7797 19.0352 49.3109 19.5477C51.0922 19.7492 52.8219 20.157 54.4101 21.0281C55.6265 21.6945 56.6242 22.5672 57.0883 23.9312C57.5461 25.2734 57.532 26.6336 57.2148 27.9969C56.5703 30.7578 55.0586 33.0336 53.1562 35.0672C50.0359 38.4008 46.2297 40.6703 41.9445 42.1695C39.4807 43.0327 36.9172 43.5795 34.3156 43.7969C32.1836 43.9758 30.0961 43.7867 28.0773 43.0453C26.7406 42.5539 25.5765 41.8023 24.6406 40.7117C24.4734 40.5164 24.2594 40.3047 23.9476 40.4875C23.6422 40.6672 23.5883 40.9578 23.6906 41.2523C23.8617 41.7414 24.0195 42.2508 24.2859 42.6883C24.9555 43.7859 25.932 44.582 27.007 45.2648C29.0719 46.5781 31.3797 47.0195 33.7726 47.1219C37.4039 47.2789 40.9469 46.7367 44.4398 45.7625C49.4265 44.3719 53.7625 41.9156 57.2398 38.0406C60.1351 34.8141 62.2031 31.1727 62.6461 26.7758C62.8625 24.6297 62.632 22.5273 61.6273 20.5695C60.5375 18.4484 58.8047 16.8711 56.7328 15.7844C53.7156 14.2023 50.4594 13.2812 47.0984 13.2812H43.7312C39.6609 13.2812 35.7258 14.4477 31.9008 15.8391C29.0055 16.893 26.1664 18.1367 23.4101 19.5133C17.4078 22.5125 11.818 26.1289 7.22655 31.1016C4.93905 33.5789 3.00233 36.3125 1.88827 39.5312C1.55202 40.4922 1.26236 41.4689 1.0203 42.4578M22.7695 70.593C22.5094 74.0766 20.9305 76.9008 18.35 79.1883C16.8984 80.4742 15.2336 81.3898 13.2945 81.7117C12.5914 81.8281 11.8719 81.8562 11.1898 81.5648C10.2172 81.1492 9.99921 80.2859 9.98046 79.3664C9.95155 77.9008 10.4648 76.5758 11.1687 75.3148C12.0875 73.6711 13.4344 72.418 14.8726 71.2477C17.1383 69.4031 19.5961 67.8422 22.1133 66.3688L22.3031 66.2906C22.6922 67.7281 22.8773 69.1477 22.7695 70.593V70.593ZM42.4242 55.4531C42.2406 56.5656 42.0109 57.6789 41.6859 58.757C40.5625 62.4891 39.1195 66.1055 37.5594 69.6734C37.2711 70.3336 36.8515 70.9359 36.4867 71.5617C36.4246 71.6579 36.3503 71.7456 36.2656 71.8227C35.814 72.2687 35.3859 72.2453 35.1578 71.6617C34.8922 70.9836 34.7289 70.2578 34.5883 69.5398C34.4937 69.0578 34.5164 68.5516 34.4867 68.0578C34.5172 64.5469 35.5883 61.3563 37.4055 58.3859C38.1547 57.1609 38.9703 55.9938 40.2164 55.2188C40.604 54.9777 41.0234 54.7921 41.4625 54.6672C42.1265 54.4805 42.5344 54.7875 42.4242 55.4531V55.4531ZM55.8336 72.5375L60.6531 66.9102C60.8539 69 57.3015 73.1719 55.8336 72.5375ZM71.2265 68.7508C70.8859 68.9461 70.5148 69.0867 70.1656 69.2672C69.8461 69.4328 69.7406 69.2656 69.7312 68.9906C69.7265 68.8003 69.751 68.6103 69.8039 68.4273C70.4547 66.132 71.6523 64.1727 73.4344 62.5789L73.5594 62.5148C74.407 64.8859 73.4273 67.4898 71.2265 68.7508Z" fill="#CB6699"/>
</svg>
