<svg width="1896" height="802" viewBox="0 0 1896 802" fill="none" xmlns="http://www.w3.org/2000/svg">
<rect width="1896" height="5" fill="#BABABA"/>
<rect y="67" width="1896" height="5" fill="#BABABA"/>
<rect y="132" width="1896" height="5" fill="#BABABA"/>
<rect y="197" width="1896" height="5" fill="#BABABA"/>
<rect y="262" width="1896" height="5" fill="#BABABA"/>
<rect y="327" width="1896" height="5" fill="#BABABA"/>
<rect y="392" width="1896" height="5" fill="#BABABA"/>
<rect y="457" width="1896" height="5" fill="#BABABA"/>
<rect y="457" width="1896" height="5" fill="#BABABA"/>
<rect y="522" width="1896" height="5" fill="#BABABA"/>
<rect y="587" width="1896" height="5" fill="#BABABA"/>
<rect y="652" width="1896" height="5" fill="#BABABA"/>
<rect y="717" width="1896" height="5" fill="#BABABA"/>
<rect y="797" width="1896" height="5" fill="#BABABA"/>
<rect y="800" width="800" height="5" transform="rotate(-90 0 800)" fill="#BABABA"/>
<rect x="67" y="800" width="800" height="5" transform="rotate(-90 67 800)" fill="#BABABA"/>
<rect x="132" y="800" width="800" height="5" transform="rotate(-90 132 800)" fill="#BABABA"/>
<rect x="197" y="800" width="800" height="5" transform="rotate(-90 197 800)" fill="#BABABA"/>
<rect x="262" y="800" width="800" height="5" transform="rotate(-90 262 800)" fill="#BABABA"/>
<rect x="327" y="800" width="800" height="5" transform="rotate(-90 327 800)" fill="#BABABA"/>
<rect x="392" y="800" width="800" height="5" transform="rotate(-90 392 800)" fill="#BABABA"/>
<rect x="457" y="800" width="800" height="5" transform="rotate(-90 457 800)" fill="#BABABA"/>
<rect x="457" y="800" width="800" height="5" transform="rotate(-90 457 800)" fill="#BABABA"/>
<rect x="522" y="800" width="800" height="5" transform="rotate(-90 522 800)" fill="#BABABA"/>
<rect x="587" y="800" width="800" height="5" transform="rotate(-90 587 800)" fill="#BABABA"/>
<rect x="652" y="800" width="800" height="5" transform="rotate(-90 652 800)" fill="#BABABA"/>
<rect x="717" y="800" width="800" height="5" transform="rotate(-90 717 800)" fill="#BABABA"/>
<rect x="717" y="800" width="800" height="5" transform="rotate(-90 717 800)" fill="#BABABA"/>
<rect x="784" y="800" width="800" height="5" transform="rotate(-90 784 800)" fill="#BABABA"/>
<rect x="849" y="800" width="800" height="5" transform="rotate(-90 849 800)" fill="#BABABA"/>
<rect x="914" y="800" width="800" height="5" transform="rotate(-90 914 800)" fill="#BABABA"/>
<rect x="979" y="800" width="800" height="5" transform="rotate(-90 979 800)" fill="#BABABA"/>
<rect x="1044" y="800" width="800" height="5" transform="rotate(-90 1044 800)" fill="#BABABA"/>
<rect x="1109" y="800" width="800" height="5" transform="rotate(-90 1109 800)" fill="#BABABA"/>
<rect x="1174" y="800" width="800" height="5" transform="rotate(-90 1174 800)" fill="#BABABA"/>
<rect x="1174" y="800" width="800" height="5" transform="rotate(-90 1174 800)" fill="#BABABA"/>
<rect x="1239" y="800" width="800" height="5" transform="rotate(-90 1239 800)" fill="#BABABA"/>
<rect x="1304" y="800" width="800" height="5" transform="rotate(-90 1304 800)" fill="#BABABA"/>
<rect x="1369" y="800" width="800" height="5" transform="rotate(-90 1369 800)" fill="#BABABA"/>
<rect x="1434" y="800" width="800" height="5" transform="rotate(-90 1434 800)" fill="#BABABA"/>
<rect x="1434" y="800" width="800" height="5" transform="rotate(-90 1434 800)" fill="#BABABA"/>
<rect x="1501" y="800" width="800" height="5" transform="rotate(-90 1501 800)" fill="#BABABA"/>
<rect x="1566" y="800" width="800" height="5" transform="rotate(-90 1566 800)" fill="#BABABA"/>
<rect x="1631" y="800" width="800" height="5" transform="rotate(-90 1631 800)" fill="#BABABA"/>
<rect x="1696" y="800" width="800" height="5" transform="rotate(-90 1696 800)" fill="#BABABA"/>
<rect x="1761" y="800" width="800" height="5" transform="rotate(-90 1761 800)" fill="#BABABA"/>
<rect x="1826" y="800" width="800" height="5" transform="rotate(-90 1826 800)" fill="#BABABA"/>
<rect x="1891" y="800" width="800" height="5" transform="rotate(-90 1891 800)" fill="#BABABA"/>
<rect x="1891" y="800" width="800" height="5" transform="rotate(-90 1891 800)" fill="#BABABA"/>
</svg>
