<svg width="100" height="100" viewBox="0 0 100 100" fill="none" xmlns="http://www.w3.org/2000/svg">
<path fill-rule="evenodd" clip-rule="evenodd" d="M50.0734 98.6125C76.8508 98.5719 98.5273 76.7898 98.5273 49.9211C98.5273 23.4891 76.9508 1.72032 51.1734 1.26016C24.1016 0.777347 1.47969 22.7445 1.47266 49.3828C1.46485 76.7883 23.0445 98.6516 50.0734 98.6125V98.6125ZM49.9945 3.61719C75.7031 3.6086 96.1867 24.4961 96.1789 50.7109C96.1703 75.4602 75.1437 96.1641 50.0133 96.1695C24.4109 96.175 3.82188 75.4172 3.82266 49.6008C3.82422 24.45 24.7336 3.62578 49.9945 3.61719V3.61719ZM30.5914 28.0438C31.0117 29.4445 29.8352 29.932 28.5844 30.0297C27.268 30.1313 25.9523 30.2305 24.4242 30.3469C29.468 45.3734 34.4359 60.1773 39.5219 75.3258C39.8844 74.7328 40.0336 74.5656 40.0992 74.3703C42.8914 66.025 45.6992 57.6852 48.4203 49.3164C48.6688 48.5531 48.5453 47.5422 48.2734 46.7578C46.8336 42.6016 45.1086 38.5359 43.8461 34.3297C42.9828 31.45 41.8375 29.5867 38.4336 29.9203C37.8539 29.9773 37.1461 28.7297 36.4969 28.0852C37.282 27.6164 38.0617 26.7539 38.8539 26.7422C45.7853 26.6357 52.7179 26.6378 59.6492 26.7484C60.4445 26.7617 61.2242 27.6469 62.0094 28.1273C61.3219 28.7555 60.7289 29.6977 59.925 29.9406C58.6352 30.3297 57.2047 30.2562 55.6609 30.3937L70.7773 75.3625C73.0672 67.7562 75.1977 60.7719 77.2695 53.7695C79.118 47.5187 78.0164 41.6812 74.6742 36.1758C73.6695 34.5203 72.4352 32.9141 71.8656 31.1086C71.2188 29.0547 70.6813 26.7164 71.0242 24.6563C71.6063 21.1648 74.2852 19.4313 77.9102 19.0992C58.0727 0.688286 26.8992 7.27891 15.4125 27.2828C19.8344 27.0789 24.0563 26.8109 28.2813 26.7531C29.0797 26.743 30.4039 27.418 30.5914 28.0438V28.0438ZM38.4953 88.9586C38.4031 89.2281 38.3977 89.5281 38.325 89.9758C46.8742 92.3461 55.2586 92.175 63.8398 89.2836L50.7305 53.3773C46.5352 65.5734 42.5117 77.2641 38.4953 88.9586ZM31.8891 87.3352L12.1383 33.1555C3.22813 50.5602 10.0063 77.1148 31.8891 87.3352ZM91.5984 52.5211C92.225 44.2914 89.3859 32.8969 86.9344 31.3297C86.6609 34.357 86.8516 37.725 85.9828 40.7937C83.9383 48.0242 81.4383 55.1289 79.0305 62.2531C76.4133 69.9969 73.693 77.7055 71.0172 85.4297C83.5891 77.9773 90.4977 66.9781 91.5984 52.5211V52.5211Z" fill="#494949"/>
</svg>
