<svg width="800" height="801" viewBox="0 0 800 801" fill="none" xmlns="http://www.w3.org/2000/svg">
<g clip-path="url(#clip0_159_44)">
<path d="M56.8594 400C56.8594 535.828 135.795 653.209 250.258 708.835L86.5688 260.346C67.5287 303.023 56.8594 350.252 56.8594 400Z" fill="white"/>
<path d="M631.668 382.684C631.668 340.274 616.435 310.904 603.369 288.044C585.975 259.778 569.67 235.841 569.67 207.574C569.67 176.03 593.595 146.667 627.294 146.667C628.815 146.667 630.258 146.856 631.74 146.941C570.689 91.0089 489.35 56.8594 400.013 56.8594C280.131 56.8594 174.659 118.368 113.301 211.531C121.352 211.773 128.939 211.943 135.384 211.943C171.277 211.943 226.837 207.587 226.837 207.587C245.335 206.497 247.516 233.666 229.037 235.854C229.037 235.854 210.447 238.041 189.762 239.125L314.724 610.82L389.821 385.596L336.357 239.112C317.878 238.028 300.372 235.841 300.372 235.841C281.881 234.757 284.048 206.484 302.54 207.574C302.54 207.574 359.21 211.93 392.929 211.93C428.815 211.93 484.381 207.574 484.381 207.574C502.893 206.484 505.067 233.653 486.582 235.841C486.582 235.841 467.953 238.028 447.307 239.112L571.316 607.992L605.544 493.614C620.379 446.151 631.668 412.06 631.668 382.684Z" fill="white"/>
<path d="M406.033 430.016L303.075 729.194C333.816 738.231 366.327 743.173 400.013 743.173C439.974 743.173 478.296 736.265 513.966 723.722C513.046 722.253 512.21 720.692 511.524 718.995L406.033 430.016Z" fill="white"/>
<path d="M701.116 235.364C702.592 246.294 703.428 258.028 703.428 270.65C703.428 305.472 696.925 344.616 677.336 393.562L572.517 696.618C674.535 637.127 743.154 526.601 743.154 400.007C743.16 340.346 727.92 284.244 701.116 235.364Z" fill="white"/>
<path d="M400.013 0C179.452 0 0 179.438 0 400C0 620.588 179.452 800.02 400.013 800.02C620.568 800.02 800.046 620.588 800.046 400C800.039 179.438 620.568 0 400.013 0ZM400.013 781.685C189.566 781.685 18.3415 610.46 18.3415 400C18.3415 189.553 189.559 18.3415 400.013 18.3415C610.454 18.3415 781.665 189.553 781.665 400C781.665 610.46 610.454 781.685 400.013 781.685Z" fill="white"/>
</g>
<defs>
<clipPath id="clip0_159_44">
<rect width="800" height="800.02" fill="white"/>
</clipPath>
</defs>
</svg>
